<svg xmlns="http://www.w3.org/2000/svg" viewBox="845 336 736 325" width="736" height="325"><defs><clipPath id="a"><path d="M1307.802 459.95h139.063v54h-139.063z"/></clipPath><clipPath id="b"><path d="M1126.26 459.95h161.542v56H1126.26z"/></clipPath><clipPath id="c"><path d="M920.594 555.45h128.235v54H920.594z"/></clipPath><clipPath id="d"><path d="M1068.83 555.45h128.235v54h-128.236z"/></clipPath><clipPath id="e"><path d="M1217.065 555.45H1345.3v54h-128.235z"/></clipPath><clipPath id="f"><path d="M1365.3 555.45h128.235v54H1365.3z"/></clipPath><clipPath id="g"><path d="M975.552 356h100.74v54h-100.74z"/></clipPath><clipPath id="h"><path d="M1096.292 356h100.74v54h-100.74z"/></clipPath><clipPath id="i"><path d="M1217.031 356h100.74v54h-100.74z"/></clipPath><clipPath id="j"><path d="M1337.77 356h100.74v54h-100.74z"/></clipPath></defs><g fill="none"><title>Enterprise-multitenancy</title><path fill="#fff" d="M845 336h736v325H845z"/><title>Layer 1</title><path fill="#fff" d="M1307.802 459.95h139.063v54h-139.063z"/><path stroke="#dfdfdf" stroke-linecap="round" stroke-linejoin="round" stroke-width="2" clip-path="url(#a)" d="M1307.802 459.95h139.063v54h-139.063z"/><text transform="translate(1348.802 479.95)" fill="#212121"><tspan font-family="Roboto" font-size="12" font-weight="400" x="0" y="11">Cluster Admin</tspan></text><path d="M1332.802 486.95c2.486 0 4.5-2.014 4.5-4.5s-2.014-4.5-4.5-4.5a4.499 4.499 0 0 0-4.5 4.5 4.5 4.5 0 0 0 4.5 4.5zm0 2.25c-3.004 0-9 1.507-9 4.5v2.25h18v-2.25c0-2.993-5.996-4.5-9-4.5z" fill="#616161"/><path fill="#fff" d="M1126.26 459.95h161.542v56H1126.26z"/><path stroke="#dfdfdf" stroke-linecap="round" stroke-linejoin="round" stroke-width="2" clip-path="url(#b)" d="M1126.26 459.95h161.542v56H1126.26z"/><text transform="translate(1177.26 473.95)" fill="#212121"><tspan font-family="Roboto" font-size="12" font-weight="400" x="0" y="11">Control Plane</tspan> <tspan font-family="Roboto" font-size="12" font-weight="400" x="0" y="25">(apiserver)</tspan></text><title>layer1</title><title>g3052</title><title>path3055</title><path d="M1156.163 474.352c-.248.013-.49.074-.714.181l-9.745 4.657a1.851 1.851 0 0 0-1.009 1.254l-2.404 10.46a1.836 1.836 0 0 0 .359 1.563l6.745 8.387c.354.44.89.696 1.457.696l10.818-.002a1.87 1.87 0 0 0 1.457-.695l6.743-8.388c.354-.44.486-1.016.36-1.564l-2.408-10.46a1.851 1.851 0 0 0-1.008-1.254l-9.747-4.654a1.877 1.877 0 0 0-.904-.18z" fill="#326ce5"/><path d="M1156.163 474.352c-.248.013-.49.074-.714.181l-9.745 4.657a1.851 1.851 0 0 0-1.009 1.254l-2.404 10.46a1.836 1.836 0 0 0 .359 1.563l6.745 8.387c.354.44.89.696 1.457.696l10.818-.002a1.87 1.87 0 0 0 1.457-.695l6.743-8.388c.354-.44.486-1.016.36-1.564l-2.408-10.46a1.851 1.851 0 0 0-1.008-1.254l-9.747-4.654a1.877 1.877 0 0 0-.904-.18z"/><title>path3059</title><path d="M1156.26 477.912c-.322 0-.583.29-.583.648v.016c0 .049-.002.108 0 .15.007.206.052.364.08.555.048.407.09.744.064 1.058a.636.636 0 0 1-.19.301l-.013.247a7.504 7.504 0 0 0-4.866 2.34 10.066 10.066 0 0 1-.21-.15c-.105.014-.21.046-.347-.034-.261-.175-.499-.418-.787-.71-.131-.14-.227-.273-.383-.408a5.392 5.392 0 0 0-.13-.103.694.694 0 0 0-.407-.153.562.562 0 0 0-.464.205c-.201.252-.137.637.143.86l.009.007c.038.03.085.07.12.097.167.122.319.185.484.283.349.215.638.394.868.61.09.095.105.263.117.336l.187.167a7.549 7.549 0 0 0-1.19 5.262l-.245.071c-.064.083-.155.214-.25.253-.3.095-.638.13-1.046.172-.191.016-.357.006-.56.045-.044.008-.107.025-.156.036l-.005.001-.008.003c-.344.083-.565.399-.494.71.071.312.407.501.753.427l.009-.002c.004 0 .007-.002.011-.003.048-.011.109-.023.15-.034.2-.054.345-.132.524-.2.386-.14.706-.255 1.017-.3.13-.01.267.08.336.118l.254-.043a7.59 7.59 0 0 0 3.364 4.2l-.106.255c.038.098.08.232.052.33-.113.293-.307.603-.528.948-.107.16-.216.284-.313.466-.023.044-.053.111-.075.157-.15.321-.04.69.248.83.29.139.65-.008.805-.33l.002-.001v-.001c.022-.046.053-.106.072-.149.083-.189.11-.351.168-.534.155-.388.24-.795.452-1.048.058-.07.153-.096.251-.123l.132-.239a7.537 7.537 0 0 0 5.383.014c.038.066.107.192.125.224.1.033.21.05.298.18.159.272.268.594.4.982.058.183.087.345.17.534.018.044.05.104.072.15.155.323.516.47.806.33.288-.138.398-.508.248-.829-.022-.046-.053-.113-.076-.157-.096-.182-.206-.305-.313-.464-.22-.346-.404-.633-.517-.927-.047-.15.008-.245.045-.344-.022-.025-.07-.168-.097-.235a7.591 7.591 0 0 0 3.363-4.23l.249.043c.088-.058.168-.133.327-.12.31.044.63.16 1.017.299.179.068.323.148.523.201.042.012.103.022.15.033.005 0 .008.003.012.004h.009c.346.075.682-.114.753-.425.07-.312-.15-.628-.494-.71-.05-.012-.12-.032-.17-.04-.202-.04-.368-.03-.56-.046-.407-.042-.745-.077-1.045-.172-.122-.047-.21-.193-.252-.253l-.235-.068a7.533 7.533 0 0 0-.122-2.724 7.55 7.55 0 0 0-1.093-2.526l.207-.186c.009-.104 0-.214.11-.33.229-.215.518-.394.867-.61.165-.097.318-.16.484-.282.038-.028.09-.072.129-.104.28-.223.344-.608.143-.86-.2-.252-.59-.276-.87-.052-.04.031-.094.072-.13.103-.156.135-.253.268-.384.408-.288.292-.526.536-.787.711-.113.066-.279.043-.354.04l-.222.157a7.645 7.645 0 0 0-4.842-2.34 14.789 14.789 0 0 1-.014-.26c-.076-.072-.167-.134-.19-.291-.026-.314.016-.651.066-1.058.027-.19.072-.349.08-.555.001-.047-.002-.115-.002-.166 0-.358-.261-.648-.583-.648zm-.73 4.524l-.174 3.06-.012.007a.514.514 0 0 1-.817.393l-.005.003-2.509-1.779a6.01 6.01 0 0 1 3.516-1.684zm1.461 0a6.06 6.06 0 0 1 3.495 1.686l-2.493 1.767-.008-.004a.515.515 0 0 1-.818-.392l-.002-.002zm-5.888 2.827l2.291 2.05-.002.012a.514.514 0 0 1-.202.883l-.003.01-2.936.848a6.008 6.008 0 0 1 .852-3.803zm10.297.002c.34.551.598 1.167.751 1.835.152.66.19 1.32.128 1.956l-2.952-.85-.002-.013a.515.515 0 0 1-.202-.883l-.002-.006 2.279-2.04zm-5.61 2.206h.938l.584.729-.21.91-.842.405-.845-.407-.21-.91zm3.009 2.495a.51.51 0 0 1 .118.009l.005-.007 3.038.514a6.016 6.016 0 0 1-2.432 3.055l-1.18-2.848.005-.005a.515.515 0 0 1 .446-.718zm-5.102.012a.515.515 0 0 1 .465.717l.009.011-1.167 2.82a6.04 6.04 0 0 1-2.424-3.034l3.011-.511.005.006a.522.522 0 0 1 .101-.009zm2.544 1.236a.511.511 0 0 1 .471.27h.012l1.484 2.682a6.032 6.032 0 0 1-3.885-.004l1.48-2.677h.003a.515.515 0 0 1 .435-.272z" fill="#fff"/><path d="M1156.26 477.912c-.322 0-.583.29-.583.648v.016c0 .049-.002.108 0 .15.007.206.052.364.08.555.048.407.09.744.064 1.058a.636.636 0 0 1-.19.301l-.013.247a7.504 7.504 0 0 0-4.866 2.34 10.066 10.066 0 0 1-.21-.15c-.105.014-.21.046-.347-.034-.261-.175-.499-.418-.787-.71-.131-.14-.227-.273-.383-.408a5.392 5.392 0 0 0-.13-.103.694.694 0 0 0-.407-.153.562.562 0 0 0-.464.205c-.201.252-.137.637.143.86l.009.007c.038.03.085.07.12.097.167.122.319.185.484.283.349.215.638.394.868.61.09.095.105.263.117.336l.187.167a7.549 7.549 0 0 0-1.19 5.262l-.245.071c-.064.083-.155.214-.25.253-.3.095-.638.13-1.046.172-.191.016-.357.006-.56.045-.044.008-.107.025-.156.036l-.005.001-.008.003c-.344.083-.565.399-.494.71.071.312.407.501.753.427l.009-.002c.004 0 .007-.002.011-.003.048-.011.109-.023.15-.034.2-.054.345-.132.524-.2.386-.14.706-.255 1.017-.3.13-.01.267.08.336.118l.254-.043a7.59 7.59 0 0 0 3.364 4.2l-.106.255c.038.098.08.232.052.33-.113.293-.307.603-.528.948-.107.16-.216.284-.313.466-.023.044-.053.111-.075.157-.15.321-.04.69.248.83.29.139.65-.008.805-.33l.002-.001v-.001c.022-.046.053-.106.072-.149.083-.189.11-.351.168-.534.155-.388.24-.795.452-1.048.058-.07.153-.096.251-.123l.132-.239a7.537 7.537 0 0 0 5.383.014c.038.066.107.192.125.224.1.033.21.05.298.18.159.272.268.594.4.982.058.183.087.345.17.534.018.044.05.104.072.15.155.323.516.47.806.33.288-.138.398-.508.248-.829-.022-.046-.053-.113-.076-.157-.096-.182-.206-.305-.313-.464-.22-.346-.404-.633-.517-.927-.047-.15.008-.245.045-.344-.022-.025-.07-.168-.097-.235a7.591 7.591 0 0 0 3.363-4.23l.249.043c.088-.058.168-.133.327-.12.31.044.63.16 1.017.299.179.068.323.148.523.201.042.012.103.022.15.033.005 0 .008.003.012.004h.009c.346.075.682-.114.753-.425.07-.312-.15-.628-.494-.71-.05-.012-.12-.032-.17-.04-.202-.04-.368-.03-.56-.046-.407-.042-.745-.077-1.045-.172-.122-.047-.21-.193-.252-.253l-.235-.068a7.533 7.533 0 0 0-.122-2.724 7.55 7.55 0 0 0-1.093-2.526l.207-.186c.009-.104 0-.214.11-.33.229-.215.518-.394.867-.61.165-.097.318-.16.484-.282.038-.028.09-.072.129-.104.28-.223.344-.608.143-.86-.2-.252-.59-.276-.87-.052-.04.031-.094.072-.13.103-.156.135-.253.268-.384.408-.288.292-.526.536-.787.711-.113.066-.279.043-.354.04l-.222.157a7.645 7.645 0 0 0-4.842-2.34 14.789 14.789 0 0 1-.014-.26c-.076-.072-.167-.134-.19-.291-.026-.314.016-.651.066-1.058.027-.19.072-.349.08-.555.001-.047-.002-.115-.002-.166 0-.358-.261-.648-.583-.648zm-.73 4.524l-.174 3.06-.012.007a.514.514 0 0 1-.817.393l-.005.003-2.509-1.779a6.01 6.01 0 0 1 3.516-1.684zm1.461 0a6.06 6.06 0 0 1 3.495 1.686l-2.493 1.767-.008-.004a.515.515 0 0 1-.818-.392l-.002-.002zm-5.888 2.827l2.291 2.05-.002.012a.514.514 0 0 1-.202.883l-.003.01-2.936.848a6.008 6.008 0 0 1 .852-3.803zm10.297.002c.34.551.598 1.167.751 1.835.152.66.19 1.32.128 1.956l-2.952-.85-.002-.013a.515.515 0 0 1-.202-.883l-.002-.006 2.279-2.04zm-5.61 2.206h.938l.584.729-.21.91-.842.405-.845-.407-.21-.91zm3.009 2.495a.51.51 0 0 1 .118.009l.005-.007 3.038.514a6.016 6.016 0 0 1-2.432 3.055l-1.18-2.848.005-.005a.515.515 0 0 1 .446-.718zm-5.102.012a.515.515 0 0 1 .465.717l.009.011-1.167 2.82a6.04 6.04 0 0 1-2.424-3.034l3.011-.511.005.006a.522.522 0 0 1 .101-.009zm2.544 1.236a.511.511 0 0 1 .471.27h.012l1.484 2.682a6.032 6.032 0 0 1-3.885-.004l1.48-2.677h.003a.515.515 0 0 1 .435-.272z" stroke="#fff" stroke-linejoin="round" stroke-width=".25"/><title>zone external - blue</title><path fill="#e1f6fe" d="M900.527 535.95h613.008v105.1H900.527z"/><title>cluster</title><path fill="#fff" d="M920.594 555.45h128.235v54H920.594z"/><path stroke="#dfdfdf" stroke-linecap="round" stroke-linejoin="round" stroke-width="2" clip-path="url(#c)" d="M920.594 555.45h128.235v54H920.594z"/><text transform="translate(961.594 575.45)" fill="#212121"><tspan font-family="Roboto" font-size="12" font-weight="400" x="0" y="11">Namespace 1</tspan></text><path d="M950.724 576.015a1.306 1.306 0 0 1 0 2.61c-.72 0-1.305-.585-1.305-1.305s.63-1.305 1.305-1.305zm-10.26 12.87a1.306 1.306 0 0 1 0-2.61 1.306 1.306 0 0 1 0 2.61zm-1.305-3.87c-1.395.045-2.565-1.125-2.565-2.565a2.536 2.536 0 0 1 2.565-2.565 2.536 2.536 0 0 1 2.565 2.565 2.536 2.536 0 0 1-2.565 2.565zm1.305-6.39a1.306 1.306 0 0 1 0-2.61c.72 0 1.305.585 1.305 1.305a1.368 1.368 0 0 1-1.305 1.305zm5.13 12.825a2.564 2.564 0 1 1 0-5.13c1.44 0 2.565 1.17 2.565 2.565a2.564 2.564 0 0 1-2.565 2.565zm-1.935-9a1.92 1.92 0 0 1 1.935-1.935 1.92 1.92 0 0 1 1.935 1.935 1.92 1.92 0 0 1-1.935 1.935 1.95 1.95 0 0 1-1.935-1.935zm1.935-3.87a2.564 2.564 0 0 1-2.565-2.565c0-1.395 1.17-2.565 2.565-2.565 1.44 0 2.565 1.17 2.565 2.565a2.564 2.564 0 0 1-2.565 2.565zm5.13 10.305a1.306 1.306 0 0 1 0-2.61 1.306 1.306 0 0 1 0 2.61zm1.305-3.87a2.564 2.564 0 0 1-2.565-2.565c0-1.395 1.17-2.565 2.565-2.565 1.44 0 2.565 1.17 2.565 2.565a2.536 2.536 0 0 1-2.565 2.565z" fill="#616161"/><title>Stroke-21</title><path stroke="#dfdfdf" stroke-linejoin="round" stroke-width="1.732" d="M925.552 615.808h120.59"/><title>Stroke-22</title><path stroke="#dfdfdf" stroke-linejoin="round" stroke-width="1.601" d="M930.114 620.475h111.466"/><title>cluster</title><path fill="#fff" d="M1068.829 555.45h128.235v54h-128.235z"/><path stroke="#dfdfdf" stroke-linecap="round" stroke-linejoin="round" stroke-width="2" clip-path="url(#d)" d="M1068.829 555.45h128.235v54h-128.235z"/><text transform="translate(1109.83 575.45)" fill="#212121"><tspan font-family="Roboto" font-size="12" font-weight="400" x="0" y="11">Namespace 2</tspan></text><path d="M1098.96 576.015a1.306 1.306 0 0 1 0 2.61c-.72 0-1.306-.585-1.306-1.305s.63-1.305 1.305-1.305zm-10.26 12.87a1.306 1.306 0 0 1 0-2.61 1.306 1.306 0 0 1 0 2.61zm-1.306-3.87c-1.395.045-2.565-1.125-2.565-2.565a2.536 2.536 0 0 1 2.565-2.565 2.536 2.536 0 0 1 2.565 2.565 2.536 2.536 0 0 1-2.565 2.565zm1.306-6.39a1.306 1.306 0 0 1 0-2.61c.72 0 1.304.585 1.304 1.305a1.368 1.368 0 0 1-1.305 1.305zm5.13 12.825a2.564 2.564 0 1 1 0-5.13c1.44 0 2.564 1.17 2.564 2.565a2.564 2.564 0 0 1-2.565 2.565zm-1.936-9a1.92 1.92 0 0 1 1.935-1.935 1.92 1.92 0 0 1 1.935 1.935 1.92 1.92 0 0 1-1.935 1.935 1.95 1.95 0 0 1-1.935-1.935zm1.936-3.87a2.564 2.564 0 0 1-2.566-2.565c0-1.395 1.17-2.565 2.565-2.565 1.44 0 2.565 1.17 2.565 2.565a2.564 2.564 0 0 1-2.565 2.565zm5.13 10.305a1.306 1.306 0 0 1 0-2.61 1.306 1.306 0 0 1 0 2.61zm1.304-3.87a2.564 2.564 0 0 1-2.565-2.565c0-1.395 1.17-2.565 2.565-2.565 1.44 0 2.565 1.17 2.565 2.565a2.536 2.536 0 0 1-2.565 2.565z" fill="#616161"/><title>Stroke-21</title><path stroke="#dfdfdf" stroke-linejoin="round" stroke-width="1.732" d="M1073.787 615.808h120.591"/><g><title>Stroke-22</title><path stroke="#dfdfdf" stroke-linejoin="round" stroke-width="1.601" d="M1078.349 620.475h111.466"/></g><g><title>cluster</title><path fill="#fff" d="M1217.065 555.45H1345.3v54h-128.235z"/><path stroke="#dfdfdf" stroke-linecap="round" stroke-linejoin="round" stroke-width="2" clip-path="url(#e)" d="M1217.065 555.45H1345.3v54h-128.235z"/><text transform="translate(1258.065 575.45)" fill="#212121"><tspan font-family="Roboto" font-size="12" font-weight="400" x="0" y="11">Namespace 3</tspan></text><path d="M1247.195 576.015a1.306 1.306 0 0 1 0 2.61c-.72 0-1.305-.585-1.305-1.305s.63-1.305 1.305-1.305zm-10.26 12.87a1.306 1.306 0 0 1 0-2.61 1.306 1.306 0 0 1 0 2.61zm-1.305-3.87c-1.395.045-2.565-1.125-2.565-2.565a2.536 2.536 0 0 1 2.565-2.565 2.536 2.536 0 0 1 2.565 2.565 2.536 2.536 0 0 1-2.565 2.565zm1.305-6.39a1.306 1.306 0 0 1 0-2.61c.72 0 1.305.585 1.305 1.305a1.368 1.368 0 0 1-1.305 1.305zm5.13 12.825a2.564 2.564 0 1 1 0-5.13c1.44 0 2.565 1.17 2.565 2.565a2.564 2.564 0 0 1-2.565 2.565zm-1.935-9a1.92 1.92 0 0 1 1.935-1.935 1.92 1.92 0 0 1 1.935 1.935 1.92 1.92 0 0 1-1.935 1.935 1.95 1.95 0 0 1-1.935-1.935zm1.935-3.87a2.564 2.564 0 0 1-2.565-2.565c0-1.395 1.17-2.565 2.565-2.565 1.44 0 2.565 1.17 2.565 2.565a2.564 2.564 0 0 1-2.565 2.565zm5.13 10.305a1.306 1.306 0 0 1 0-2.61 1.306 1.306 0 0 1 0 2.61zm1.305-3.87a2.564 2.564 0 0 1-2.565-2.565c0-1.395 1.17-2.565 2.565-2.565 1.44 0 2.565 1.17 2.565 2.565a2.536 2.536 0 0 1-2.565 2.565z" fill="#616161"/><title>Stroke-21</title><path stroke="#dfdfdf" stroke-linejoin="round" stroke-width="1.732" d="M1222.022 615.808h120.591"/><g><title>Stroke-22</title><path stroke="#dfdfdf" stroke-linejoin="round" stroke-width="1.601" d="M1226.585 620.475h111.466"/></g></g><g><title>cluster</title><path fill="#fff" d="M1365.3 555.45h128.235v54H1365.3z"/><path stroke="#dfdfdf" stroke-linecap="round" stroke-linejoin="round" stroke-width="2" clip-path="url(#f)" d="M1365.3 555.45h128.235v54H1365.3z"/><text transform="translate(1406.3 575.45)" fill="#212121"><tspan font-family="Roboto" font-size="12" font-weight="400" x="0" y="11">Namespace 4</tspan></text><path d="M1395.43 576.015a1.306 1.306 0 0 1 0 2.61c-.72 0-1.305-.585-1.305-1.305s.63-1.305 1.305-1.305zm-10.26 12.87a1.306 1.306 0 0 1 0-2.61 1.306 1.306 0 0 1 0 2.61zm-1.305-3.87c-1.395.045-2.565-1.125-2.565-2.565a2.536 2.536 0 0 1 2.565-2.565 2.536 2.536 0 0 1 2.565 2.565 2.536 2.536 0 0 1-2.565 2.565zm1.305-6.39a1.306 1.306 0 0 1 0-2.61c.72 0 1.305.585 1.305 1.305a1.368 1.368 0 0 1-1.305 1.305zm5.13 12.825a2.564 2.564 0 1 1 0-5.13c1.44 0 2.565 1.17 2.565 2.565a2.564 2.564 0 0 1-2.565 2.565zm-1.935-9a1.92 1.92 0 0 1 1.935-1.935 1.92 1.92 0 0 1 1.935 1.935 1.92 1.92 0 0 1-1.935 1.935 1.95 1.95 0 0 1-1.935-1.935zm1.935-3.87a2.564 2.564 0 0 1-2.565-2.565c0-1.395 1.17-2.565 2.565-2.565 1.44 0 2.565 1.17 2.565 2.565a2.564 2.564 0 0 1-2.565 2.565zm5.13 10.305a1.306 1.306 0 0 1 0-2.61 1.306 1.306 0 0 1 0 2.61zm1.305-3.87a2.564 2.564 0 0 1-2.565-2.565c0-1.395 1.17-2.565 2.565-2.565 1.44 0 2.565 1.17 2.565 2.565a2.536 2.536 0 0 1-2.565 2.565z" fill="#616161"/><title>Stroke-21</title><path stroke="#dfdfdf" stroke-linejoin="round" stroke-width="1.732" d="M1370.258 615.808h120.59"/><g><title>Stroke-22</title><path stroke="#dfdfdf" stroke-linejoin="round" stroke-width="1.601" d="M1374.82 620.475h111.466"/></g></g><g><path fill="#fff" d="M975.552 356h100.74v54h-100.74z"/><path stroke="#dfdfdf" stroke-linecap="round" stroke-linejoin="round" stroke-width="2" clip-path="url(#g)" d="M975.552 356h100.74v54h-100.74z"/><text transform="translate(1016.552 376)" fill="#212121"><tspan font-family="Roboto" font-size="12" font-weight="400" x="0" y="11">Tenant 1</tspan></text><title>Shape_1_</title><path d="M1003.825 382.182a2.462 2.462 0 0 0 2.454-2.455 2.462 2.462 0 0 0-2.454-2.454 2.462 2.462 0 0 0-2.455 2.454 2.462 2.462 0 0 0 2.455 2.455zm-6.546 0a2.462 2.462 0 0 0 2.455-2.455 2.462 2.462 0 0 0-2.455-2.454 2.462 2.462 0 0 0-2.454 2.454 2.462 2.462 0 0 0 2.454 2.455zm0 1.636c-1.909 0-5.727.955-5.727 2.864v2.045h11.455v-2.045c0-1.91-3.819-2.864-5.728-2.864zm6.546 0a8.54 8.54 0 0 0-.791.041c.954.682 1.609 1.61 1.609 2.823v2.045h4.91v-2.045c0-1.91-3.82-2.864-5.728-2.864z" fill="#616161"/><title>Stroke-21</title><path stroke="#dfdfdf" stroke-linejoin="round" stroke-width="1.732" d="M978.555 414.833h94.734"/><g><title>Stroke-22</title><path stroke="#dfdfdf" stroke-linejoin="round" stroke-width="1.601" d="M982.139 419.5h87.566"/></g></g><g><path fill="#fff" d="M1096.292 356h100.74v54h-100.74z"/><path stroke="#dfdfdf" stroke-linecap="round" stroke-linejoin="round" stroke-width="2" clip-path="url(#h)" d="M1096.292 356h100.74v54h-100.74z"/><text transform="translate(1137.292 376)" fill="#212121"><tspan font-family="Roboto" font-size="12" font-weight="400" x="0" y="11">Tenant 2</tspan></text><title>Shape_1_</title><path d="M1124.564 382.182a2.462 2.462 0 0 0 2.455-2.455 2.462 2.462 0 0 0-2.455-2.454 2.462 2.462 0 0 0-2.454 2.454 2.462 2.462 0 0 0 2.454 2.455zm-6.545 0a2.462 2.462 0 0 0 2.455-2.455 2.462 2.462 0 0 0-2.455-2.454 2.462 2.462 0 0 0-2.455 2.454 2.462 2.462 0 0 0 2.455 2.455zm0 1.636c-1.91 0-5.727.955-5.727 2.864v2.045h11.454v-2.045c0-1.91-3.818-2.864-5.727-2.864zm6.545 0a8.63 8.63 0 0 0-.79.041c.954.682 1.609 1.61 1.609 2.823v2.045h4.909v-2.045c0-1.91-3.818-2.864-5.728-2.864z" fill="#616161"/><title>Stroke-21</title><path stroke="#dfdfdf" stroke-linejoin="round" stroke-width="1.732" d="M1099.294 414.833h94.734"/><g><title>Stroke-22</title><path stroke="#dfdfdf" stroke-linejoin="round" stroke-width="1.601" d="M1102.879 419.5h87.565"/></g></g><g><path fill="#fff" d="M1217.031 356h100.74v54h-100.74z"/><path stroke="#dfdfdf" stroke-linecap="round" stroke-linejoin="round" stroke-width="2" clip-path="url(#i)" d="M1217.031 356h100.74v54h-100.74z"/><text transform="translate(1258.031 376)" fill="#212121"><tspan font-family="Roboto" font-size="12" font-weight="400" x="0" y="11">Tenant 3</tspan></text><title>Shape_1_</title><path d="M1245.304 382.182a2.462 2.462 0 0 0 2.454-2.455 2.462 2.462 0 0 0-2.454-2.454 2.462 2.462 0 0 0-2.455 2.454 2.462 2.462 0 0 0 2.455 2.455zm-6.546 0a2.462 2.462 0 0 0 2.455-2.455 2.462 2.462 0 0 0-2.455-2.454 2.462 2.462 0 0 0-2.454 2.454 2.462 2.462 0 0 0 2.454 2.455zm0 1.636c-1.909 0-5.727.955-5.727 2.864v2.045h11.455v-2.045c0-1.91-3.818-2.864-5.728-2.864zm6.546 0c-.232 0-.505.014-.791.041.955.682 1.61 1.61 1.61 2.823v2.045h4.908v-2.045c0-1.91-3.818-2.864-5.727-2.864z" fill="#616161"/><title>Stroke-21</title><path stroke="#dfdfdf" stroke-linejoin="round" stroke-width="1.732" d="M1220.034 414.833h94.734"/><g><title>Stroke-22</title><path stroke="#dfdfdf" stroke-linejoin="round" stroke-width="1.601" d="M1223.618 419.5h87.566"/></g></g><g><path fill="#fff" d="M1337.771 356h100.74v54h-100.74z"/><path stroke="#dfdfdf" stroke-linecap="round" stroke-linejoin="round" stroke-width="2" clip-path="url(#j)" d="M1337.771 356h100.74v54h-100.74z"/><text transform="translate(1378.77 376)" fill="#212121"><tspan font-family="Roboto" font-size="12" font-weight="400" x="0" y="11">Tenant 4</tspan></text><title>Shape_1_</title><path d="M1366.044 382.182a2.462 2.462 0 0 0 2.454-2.455 2.462 2.462 0 0 0-2.454-2.454 2.462 2.462 0 0 0-2.455 2.454 2.462 2.462 0 0 0 2.455 2.455zm-6.546 0a2.462 2.462 0 0 0 2.455-2.455 2.462 2.462 0 0 0-2.455-2.454 2.462 2.462 0 0 0-2.454 2.454 2.462 2.462 0 0 0 2.454 2.455zm0 1.636c-1.909 0-5.727.955-5.727 2.864v2.045h11.454v-2.045c0-1.91-3.818-2.864-5.727-2.864zm6.546 0c-.232 0-.505.014-.791.041.954.682 1.609 1.61 1.609 2.823v2.045h4.909v-2.045c0-1.91-3.818-2.864-5.727-2.864z" fill="#616161"/><title>Stroke-21</title><path stroke="#dfdfdf" stroke-linejoin="round" stroke-width="1.732" d="M1340.774 414.833h94.734"/><g><title>Stroke-22</title><path stroke="#dfdfdf" stroke-linejoin="round" stroke-width="1.601" d="M1344.358 419.5h87.566"/></g></g><g><path d="M1025.422 420.907l-.07 5.8.07 12.546a.5.5 0 1 0 1-.006l-.07-12.537.07-5.791a.5.5 0 1 0-1-.012z" fill="#616161"/></g><g><path d="M1026 440h362.25a.5.5 0 0 0 0-1H1026a.5.5 0 0 0 0 1z" fill="#616161"/></g><g><path d="M1146.197 420.907l-.07 5.8.07 12.546a.5.5 0 1 0 1-.006l-.071-12.537.07-5.791a.5.5 0 1 0-1-.012z" fill="#616161"/></g><g><path d="M1206.531 439.863v11.112a.5.5 0 0 0 1 0v-11.112a.5.5 0 1 0-1 0zm1 19.112v-8h-1v8zm3.147-4.354l-4 4h.707l-4-4-.707.708 4 4 .353.353.354-.353 4-4z" fill="#616161"/></g><g><path d="M1266.937 420.907l-.071 5.8.07 12.546a.5.5 0 1 0 1-.006l-.07-12.537.07-5.791a.5.5 0 1 0-1-.012z" fill="#616161"/></g><g><path d="M1387.676 420.907l-.07 5.8.07 12.546a.5.5 0 0 0 1-.006l-.07-12.537.07-5.791a.5.5 0 1 0-1-.012z" fill="#616161"/></g><g><path d="M1307.125 487.45h-10.35a.5.5 0 0 0 0 1h10.35a.5.5 0 0 0 0-1zm-18.35 1h8v-1h-8zm4.354 3.146l-4-4v.708l4-4-.708-.708-4 4-.353.354.353.354 4 4z" fill="#616161"/></g><g><path d="M1206.531 515.95v9.588a.5.5 0 0 0 1 0v-9.588a.5.5 0 1 0-1 0zm1 17.588v-8h-1v8zm3.147-4.354l-4 4h.707l-4-4-.707.707 4 4 .353.354.354-.354 4-4z" fill="#616161"/></g></g></svg>