<svg xmlns="http://www.w3.org/2000/svg" viewBox="845 336 736 330" width="736" height="330"><defs><clipPath id="a"><path d="M1064.792 356h151v54h-151z"/></clipPath><clipPath id="b"><path d="M1064.792 430h151v54h-151z"/></clipPath><clipPath id="c"><path d="M1235.792 430h151v54h-151z"/></clipPath><clipPath id="d"><path d="M1064.792 504h151v56h-151z"/></clipPath><clipPath id="e"><path d="M1092.792 580h95v54h-95z"/></clipPath></defs><g fill="none"><title>SaaS-multitenancy</title><path fill="#fff" d="M845 336h736v330H845z"/><title>Layer 1</title><path fill="#fff" d="M1064.792 356h151v54h-151z"/><path stroke="#dfdfdf" stroke-linecap="round" stroke-linejoin="round" stroke-width="2" clip-path="url(#a)" d="M1064.792 356h151v54h-151z"/><text transform="translate(1105.792 376)" fill="#212121"><tspan font-family="Roboto" font-size="12" font-weight="400" x="0" y="11">SaaS Consumers</tspan></text><title>Shape_1_</title><path d="M1093.064 382.182a2.462 2.462 0 0 0 2.455-2.455 2.462 2.462 0 0 0-2.455-2.454 2.462 2.462 0 0 0-2.454 2.454 2.462 2.462 0 0 0 2.454 2.455zm-6.545 0a2.462 2.462 0 0 0 2.455-2.455 2.462 2.462 0 0 0-2.455-2.454 2.462 2.462 0 0 0-2.455 2.454 2.462 2.462 0 0 0 2.455 2.455zm0 1.636c-1.91 0-5.727.955-5.727 2.864v2.045h11.454v-2.045c0-1.91-3.818-2.864-5.727-2.864zm6.545 0a8.63 8.63 0 0 0-.79.041c.954.682 1.609 1.61 1.609 2.823v2.045h4.909v-2.045c0-1.91-3.818-2.864-5.728-2.864z" fill="#616161"/><title>logs API</title><path fill="#fff" d="M1064.792 430h151v54h-151z"/><path stroke="#dfdfdf" stroke-linecap="round" stroke-linejoin="round" stroke-width="2" clip-path="url(#b)" d="M1064.792 430h151v54h-151z"/><text transform="translate(1105.792 450)" fill="#212121"><tspan font-family="Roboto" font-size="12" font-weight="400" x="0" y="11">SaaS API/Proxy</tspan></text><path fill="#616161" d="M1083.042 462.625h15.75v2.25h-15.75zm0-3.375h14.625v2.25h-14.625zm0-3.375h15.75v2.25h-15.75zm0-3.375h14.625v2.25h-14.625zm-2.25-3.375h18v2.25h-18z"/><path fill="#fff" d="M1235.792 430h151v54h-151z"/><path stroke="#dfdfdf" stroke-linecap="round" stroke-linejoin="round" stroke-width="2" clip-path="url(#c)" d="M1235.792 430h151v54h-151z"/><text transform="translate(1276.792 450)" fill="#212121"><tspan font-family="Roboto" font-size="12" font-weight="400" x="0" y="11">Cluster Admin</tspan></text><path d="M1260.792 457c2.486 0 4.5-2.014 4.5-4.5s-2.014-4.5-4.5-4.5a4.499 4.499 0 0 0-4.5 4.5c0 2.486 2.013 4.5 4.5 4.5zm0 2.25c-3.004 0-9 1.507-9 4.5V466h18v-2.25c0-2.993-5.997-4.5-9-4.5z" fill="#616161"/><path fill="#fff" d="M1064.792 504h151v56h-151z"/><path stroke="#dfdfdf" stroke-linecap="round" stroke-linejoin="round" stroke-width="2" clip-path="url(#d)" d="M1064.792 504h151v56h-151z"/><text transform="translate(1115.792 518)" fill="#212121"><tspan font-family="Roboto" font-size="12" font-weight="400" x="0" y="11">Control Plane</tspan> <tspan font-family="Roboto" font-size="12" font-weight="400" x="0" y="25">(apiserver)</tspan></text><title>layer1</title><title>g3052</title><title>path3055</title><path d="M1094.695 518.402a1.887 1.887 0 0 0-.715.181l-9.745 4.657a1.853 1.853 0 0 0-1.009 1.254l-2.404 10.46a1.836 1.836 0 0 0 .36 1.564l6.745 8.386c.353.44.89.696 1.457.696l10.817-.003a1.87 1.87 0 0 0 1.457-.694l6.743-8.388c.354-.44.487-1.016.36-1.564l-2.408-10.46a1.851 1.851 0 0 0-1.008-1.254l-9.747-4.654a1.877 1.877 0 0 0-.903-.18z" fill="#326ce5"/><path d="M1094.695 518.402a1.887 1.887 0 0 0-.715.181l-9.745 4.657a1.853 1.853 0 0 0-1.009 1.254l-2.404 10.46a1.836 1.836 0 0 0 .36 1.564l6.745 8.386c.353.44.89.696 1.457.696l10.817-.003a1.87 1.87 0 0 0 1.457-.694l6.743-8.388c.354-.44.487-1.016.36-1.564l-2.408-10.46a1.851 1.851 0 0 0-1.008-1.254l-9.747-4.654a1.877 1.877 0 0 0-.903-.18z"/><title>path3059</title><path d="M1094.791 521.962c-.322 0-.583.29-.583.648l.001.016c0 .049-.003.108-.001.15.007.206.052.364.08.555.049.407.09.744.064 1.058a.637.637 0 0 1-.19.301l-.013.247a7.503 7.503 0 0 0-4.866 2.34 9.66 9.66 0 0 1-.21-.15c-.105.014-.21.046-.347-.034-.261-.175-.499-.418-.786-.71-.132-.14-.228-.273-.384-.408a5.392 5.392 0 0 0-.13-.103.694.694 0 0 0-.406-.153.562.562 0 0 0-.465.205c-.201.252-.137.637.143.86l.009.006c.038.032.085.072.12.098.167.122.319.185.484.283.35.215.639.394.868.61.09.095.105.263.117.336l.187.167a7.549 7.549 0 0 0-1.19 5.262l-.245.071c-.064.083-.155.214-.25.253-.3.095-.638.13-1.046.172-.191.016-.356.006-.56.045-.044.008-.106.025-.155.036l-.005.001-.009.003c-.344.083-.565.399-.493.71.07.312.406.501.752.427l.009-.002c.004 0 .007-.002.011-.003.049-.011.109-.023.151-.034.2-.054.344-.132.524-.2.385-.14.705-.255 1.017-.3.13-.01.267.08.335.118l.254-.043a7.591 7.591 0 0 0 3.364 4.2l-.106.255c.038.098.08.232.052.33-.113.293-.307.603-.528.948-.107.16-.216.284-.313.466-.023.044-.052.111-.074.158-.15.32-.04.69.247.828.29.14.65-.007.806-.329v-.002c.023-.046.054-.106.073-.149.083-.189.11-.351.168-.534.155-.388.24-.795.452-1.048.058-.07.153-.096.251-.123l.133-.239a7.536 7.536 0 0 0 5.383.014l.124.224c.1.033.21.05.298.18.16.272.268.594.4.982.058.183.087.345.17.534.019.044.05.104.072.15.155.323.516.47.807.33.287-.138.398-.508.248-.829-.023-.046-.053-.113-.076-.156-.097-.183-.206-.306-.313-.465-.221-.346-.404-.633-.517-.927-.048-.15.007-.245.044-.343-.022-.026-.069-.169-.097-.236a7.59 7.59 0 0 0 3.363-4.23l.25.043c.087-.058.168-.133.326-.12.311.044.63.16 1.017.298.18.07.324.149.523.202.042.012.103.022.151.033.004 0 .007.003.011.004h.009c.346.075.682-.114.753-.425.07-.312-.15-.628-.494-.71-.05-.012-.12-.032-.17-.04-.202-.04-.367-.03-.559-.046-.408-.042-.745-.077-1.046-.172-.122-.047-.209-.193-.251-.253l-.236-.068a7.535 7.535 0 0 0-.122-2.724 7.554 7.554 0 0 0-1.093-2.526l.207-.186c.01-.104.001-.214.11-.33.229-.215.518-.394.867-.61.165-.097.319-.16.485-.282.037-.028.089-.072.128-.104.28-.223.344-.608.143-.86-.2-.252-.59-.275-.87-.052-.04.031-.093.072-.13.103-.156.135-.252.268-.384.408-.288.292-.526.536-.787.711-.113.066-.279.043-.354.04l-.222.157a7.645 7.645 0 0 0-4.842-2.34 13.76 13.76 0 0 1-.014-.26c-.075-.072-.167-.134-.19-.291-.026-.314.017-.651.066-1.058.027-.19.072-.349.08-.555.001-.047-.001-.115-.002-.166 0-.358-.26-.648-.583-.648zm-.73 4.524l-.174 3.06-.012.007a.514.514 0 0 1-.816.393l-.005.003-2.51-1.779a6.009 6.009 0 0 1 3.517-1.684zm1.462 0a6.06 6.06 0 0 1 3.495 1.686l-2.493 1.767-.009-.004a.515.515 0 0 1-.818-.392l-.002-.002zm-5.888 2.827l2.29 2.05-.002.012a.513.513 0 0 1-.202.883l-.002.01-2.937.848a6.007 6.007 0 0 1 .853-3.803zm10.296.001a6.112 6.112 0 0 1 .879 3.792l-2.952-.85-.002-.012a.514.514 0 0 1-.202-.884l-.001-.006 2.278-2.04zm-5.61 2.207h.939l.583.729-.21.91-.842.405-.845-.407-.21-.91zm3.009 2.495c.04-.002.08.001.118.009l.005-.007 3.038.514a6.015 6.015 0 0 1-2.432 3.055l-1.179-2.848.004-.005a.515.515 0 0 1 .446-.718zm-5.101.012a.514.514 0 0 1 .464.717l.01.011-1.168 2.82a6.04 6.04 0 0 1-2.424-3.034l3.011-.511.005.006a.522.522 0 0 1 .101-.009zm2.543 1.236a.51.51 0 0 1 .471.27h.012l1.484 2.682a6.031 6.031 0 0 1-3.885-.004l1.48-2.677h.003a.515.515 0 0 1 .435-.271z" fill="#fff"/><path d="M1094.791 521.962c-.322 0-.583.29-.583.648l.001.016c0 .049-.003.108-.001.15.007.206.052.364.08.555.049.407.09.744.064 1.058a.637.637 0 0 1-.19.301l-.013.247a7.503 7.503 0 0 0-4.866 2.34 9.66 9.66 0 0 1-.21-.15c-.105.014-.21.046-.347-.034-.261-.175-.499-.418-.786-.71-.132-.14-.228-.273-.384-.408a5.392 5.392 0 0 0-.13-.103.694.694 0 0 0-.406-.153.562.562 0 0 0-.465.205c-.201.252-.137.637.143.86l.009.006c.038.032.085.072.12.098.167.122.319.185.484.283.35.215.639.394.868.61.09.095.105.263.117.336l.187.167a7.549 7.549 0 0 0-1.19 5.262l-.245.071c-.064.083-.155.214-.25.253-.3.095-.638.13-1.046.172-.191.016-.356.006-.56.045-.044.008-.106.025-.155.036l-.005.001-.009.003c-.344.083-.565.399-.493.71.07.312.406.501.752.427l.009-.002c.004 0 .007-.002.011-.003.049-.011.109-.023.151-.034.2-.054.344-.132.524-.2.385-.14.705-.255 1.017-.3.13-.01.267.08.335.118l.254-.043a7.591 7.591 0 0 0 3.364 4.2l-.106.255c.038.098.08.232.052.33-.113.293-.307.603-.528.948-.107.16-.216.284-.313.466-.023.044-.052.111-.074.158-.15.32-.04.69.247.828.29.14.65-.007.806-.329v-.002c.023-.046.054-.106.073-.149.083-.189.11-.351.168-.534.155-.388.24-.795.452-1.048.058-.07.153-.096.251-.123l.133-.239a7.536 7.536 0 0 0 5.383.014l.124.224c.1.033.21.05.298.18.16.272.268.594.4.982.058.183.087.345.17.534.019.044.05.104.072.15.155.323.516.47.807.33.287-.138.398-.508.248-.829-.023-.046-.053-.113-.076-.156-.097-.183-.206-.306-.313-.465-.221-.346-.404-.633-.517-.927-.048-.15.007-.245.044-.343-.022-.026-.069-.169-.097-.236a7.59 7.59 0 0 0 3.363-4.23l.25.043c.087-.058.168-.133.326-.12.311.044.63.16 1.017.298.18.07.324.149.523.202.042.012.103.022.151.033.004 0 .007.003.011.004h.009c.346.075.682-.114.753-.425.07-.312-.15-.628-.494-.71-.05-.012-.12-.032-.17-.04-.202-.04-.367-.03-.559-.046-.408-.042-.745-.077-1.046-.172-.122-.047-.209-.193-.251-.253l-.236-.068a7.535 7.535 0 0 0-.122-2.724 7.554 7.554 0 0 0-1.093-2.526l.207-.186c.01-.104.001-.214.11-.33.229-.215.518-.394.867-.61.165-.097.319-.16.485-.282.037-.028.089-.072.128-.104.28-.223.344-.608.143-.86-.2-.252-.59-.275-.87-.052-.04.031-.093.072-.13.103-.156.135-.252.268-.384.408-.288.292-.526.536-.787.711-.113.066-.279.043-.354.04l-.222.157a7.645 7.645 0 0 0-4.842-2.34 13.76 13.76 0 0 1-.014-.26c-.075-.072-.167-.134-.19-.291-.026-.314.017-.651.066-1.058.027-.19.072-.349.08-.555.001-.047-.001-.115-.002-.166 0-.358-.26-.648-.583-.648zm-.73 4.524l-.174 3.06-.012.007a.514.514 0 0 1-.816.393l-.005.003-2.51-1.779a6.009 6.009 0 0 1 3.517-1.684zm1.462 0a6.06 6.06 0 0 1 3.495 1.686l-2.493 1.767-.009-.004a.515.515 0 0 1-.818-.392l-.002-.002zm-5.888 2.827l2.29 2.05-.002.012a.513.513 0 0 1-.202.883l-.002.01-2.937.848a6.007 6.007 0 0 1 .853-3.803zm10.296.001a6.112 6.112 0 0 1 .879 3.792l-2.952-.85-.002-.012a.514.514 0 0 1-.202-.884l-.001-.006 2.278-2.04zm-5.61 2.207h.939l.583.729-.21.91-.842.405-.845-.407-.21-.91zm3.009 2.495c.04-.002.08.001.118.009l.005-.007 3.038.514a6.015 6.015 0 0 1-2.432 3.055l-1.179-2.848.004-.005a.515.515 0 0 1 .446-.718zm-5.101.012a.514.514 0 0 1 .464.717l.01.011-1.168 2.82a6.04 6.04 0 0 1-2.424-3.034l3.011-.511.005.006a.522.522 0 0 1 .101-.009zm2.543 1.236a.51.51 0 0 1 .471.27h.012l1.484 2.682a6.031 6.031 0 0 1-3.885-.004l1.48-2.677h.003a.515.515 0 0 1 .435-.271z" stroke="#fff" stroke-linejoin="round" stroke-width=".25"/><g><title>cluster</title><path fill="#fff" d="M1092.792 580h95v54h-95z"/><path stroke="#dfdfdf" stroke-linecap="round" stroke-linejoin="round" stroke-width="2" clip-path="url(#e)" d="M1092.792 580h95v54h-95z"/><text transform="translate(1133.792 600)" fill="#212121"><tspan font-family="Roboto" font-size="12" font-weight="400" x="0" y="11">Cluster</tspan></text><path d="M1122.922 600.565a1.306 1.306 0 0 1 0 2.61c-.72 0-1.305-.585-1.305-1.305s.63-1.305 1.305-1.305zm-10.26 12.87a1.306 1.306 0 0 1 0-2.61 1.306 1.306 0 0 1 0 2.61zm-1.305-3.87c-1.395.045-2.565-1.125-2.565-2.565a2.536 2.536 0 0 1 2.565-2.565 2.536 2.536 0 0 1 2.565 2.565 2.536 2.536 0 0 1-2.565 2.565zm1.305-6.39a1.306 1.306 0 0 1 0-2.61c.72 0 1.305.585 1.305 1.305a1.368 1.368 0 0 1-1.305 1.305zm5.13 12.825a2.564 2.564 0 1 1 0-5.13c1.44 0 2.565 1.17 2.565 2.565a2.564 2.564 0 0 1-2.565 2.565zm-1.935-9a1.92 1.92 0 0 1 1.935-1.935 1.92 1.92 0 0 1 1.935 1.935 1.92 1.92 0 0 1-1.935 1.935 1.95 1.95 0 0 1-1.935-1.935zm1.935-3.87a2.564 2.564 0 0 1-2.565-2.565c0-1.395 1.17-2.565 2.565-2.565 1.44 0 2.565 1.17 2.565 2.565a2.564 2.564 0 0 1-2.565 2.565zm5.13 10.305a1.306 1.306 0 0 1 0-2.61 1.306 1.306 0 0 1 0 2.61zm1.305-3.87a2.564 2.564 0 0 1-2.565-2.565c0-1.395 1.17-2.565 2.565-2.565 1.44 0 2.565 1.17 2.565 2.565a2.536 2.536 0 0 1-2.565 2.565z" fill="#616161"/><title>Stroke-21</title><path stroke="#dfdfdf" stroke-linejoin="round" stroke-width="1.732" d="M1095.623 638.158h89.337"/><g><title>Stroke-22</title><path stroke="#dfdfdf" stroke-linejoin="round" stroke-width="1.601" d="M1099.003 642.825h82.577"/></g></g><g><path d="M1064.792 382.5h-25.584a.5.5 0 0 0-.5.5v224a.5.5 0 0 0 .5.5h43.684a.5.5 0 0 0 0-1h-43.684l.5.5V383l-.5.5h25.584a.5.5 0 0 0 0-1zm26.1 224h-8v1h8zm-4.354-3.146l4 4v-.708l-4 4 .707.708 4-4 .354-.354-.354-.354-4-4z" fill="#616161"/></g><g><path d="M1139.792 410v10.1a.5.5 0 1 0 1 0V410a.5.5 0 0 0-1 0zm1 18.1v-8h-1v8zm3.146-4.354l-4 4h.707l-4-4-.707.708 4 4 .354.353.353-.353 4-4z" fill="#616161"/></g><g><path d="M1139.792 484v10.1a.5.5 0 1 0 1 0V484a.5.5 0 0 0-1 0zm1 18.1v-8h-1v8zm3.146-4.354l-4 4h.707l-4-4-.707.708 4 4 .354.353.353-.353 4-4z" fill="#616161"/></g><g><path d="M1139.292 560v10.6a.5.5 0 1 0 1 0V560a.5.5 0 0 0-1 0zm1 18.6v-8h-1v8zm3.146-4.354l-4 4h.707l-4-4-.707.708 4 4 .354.353.353-.353 4-4z" fill="#616161"/></g><g><path d="M1310.792 484v48l.5-.5h-85.6a.5.5 0 1 0 0 1h85.6a.5.5 0 0 0 .5-.5v-48a.5.5 0 0 0-1 0zm-93.1 48.5h8v-1h-8zm4.353 3.146l-4-4v.708l4-4-.707-.708-4 4-.353.354.353.354 4 4z" fill="#616161"/></g></g></svg>